<?xml version="1.0" standalone="no"?>
<!DOCTYPE svg PUBLIC "-//W3C//DTD SVG 20010904//EN"
 "http://www.w3.org/TR/2001/REC-SVG-20010904/DTD/svg10.dtd">
<svg version="1.0" xmlns="http://www.w3.org/2000/svg"
 width="8000.000000pt" height="4500.000000pt" viewBox="0 0 8000.000000 4500.000000"
 preserveAspectRatio="xMidYMid meet">

<g transform="translate(0.000000,4500.000000) scale(0.100000,-0.100000)"
fill="#000000" stroke="none">
<path d="M17643 30400 c-23 -5 -52 -14 -65 -21 -13 -7 -1159 -728 -2548 -1604
-1389 -876 -2541 -1601 -2560 -1611 -33 -18 -70 -19 -630 -24 -590 -5 -595 -5
-636 -27 -47 -25 -89 -71 -113 -123 -14 -31 -16 -120 -16 -795 0 -857 -3 -818
77 -890 76 -69 16 -65 995 -65 837 0 890 1 928 19 22 10 401 246 843 524 442
279 805 507 808 507 2 0 4 -1084 4 -2410 l0 -2410 950 0 950 0 0 3013 1 3012
745 470 c410 259 769 484 797 500 l52 30 515 5 c508 5 516 5 557 27 22 12 55
39 72 60 62 74 61 64 61 867 0 503 -4 743 -11 771 -18 63 -62 118 -121 150
l-53 30 -780 2 c-429 0 -799 -3 -822 -7z"/>
<path d="M51940 25620 l0 -4150 895 0 895 0 2 1733 c3 1633 4 1737 22 1827 72
376 243 629 518 769 168 86 327 121 549 121 572 0 949 -327 1019 -883 6 -53
10 -697 10 -1824 l0 -1743 895 0 896 0 -4 1968 c-4 2153 0 2022 -62 2327 -148
734 -554 1286 -1160 1580 -211 103 -417 165 -664 202 -160 23 -528 23 -701 -1
-281 -38 -494 -99 -709 -202 -223 -107 -410 -246 -548 -407 l-58 -68 -3 1450
-2 1451 -895 0 -895 0 0 -4150z"/>
<path d="M49040 28804 c-465 -140 -862 -259 -882 -264 l-38 -11 0 -564 0 -565
-475 0 -475 0 0 -855 0 -855 475 0 475 0 0 -1169 c0 -688 4 -1221 10 -1297 63
-807 328 -1287 859 -1553 214 -108 454 -174 786 -218 245 -32 1032 -24 1303
13 l42 6 0 807 0 806 -332 0 c-238 0 -354 4 -408 14 -302 55 -439 175 -470
415 -5 39 -10 542 -10 1124 l0 1052 610 0 610 0 0 855 0 855 -610 0 -610 0 0
830 c0 457 -3 830 -7 829 -5 0 -388 -115 -853 -255z"/>
<path d="M30120 27563 c-681 -47 -1259 -265 -1780 -669 -141 -109 -378 -343
-490 -484 -347 -435 -562 -932 -653 -1510 -29 -187 -32 -719 -4 -905 150
-1002 706 -1815 1573 -2299 750 -420 1715 -507 2549 -231 689 227 1236 646
1635 1251 535 812 651 1896 304 2838 -61 167 -191 429 -287 578 -489 763
-1273 1267 -2182 1402 -197 29 -483 42 -665 29z m455 -1758 c107 -19 269 -71
357 -116 258 -129 480 -356 597 -612 169 -365 181 -834 31 -1210 -146 -365
-426 -627 -803 -752 -147 -48 -276 -68 -447 -68 -523 0 -960 254 -1194 694
-155 291 -203 687 -126 1040 122 562 544 952 1120 1035 117 17 340 12 465 -11z"/>
<path d="M36960 27563 c-109 -6 -317 -34 -440 -59 -624 -125 -1173 -422 -1616
-875 -482 -494 -767 -1086 -860 -1794 -25 -185 -25 -620 0 -800 82 -597 299
-1116 656 -1565 107 -135 346 -373 479 -479 249 -198 600 -394 884 -496 239
-85 525 -150 782 -176 142 -14 499 -14 640 0 953 99 1783 592 2300 1366 278
417 445 882 506 1410 17 140 17 537 1 680 -59 521 -227 990 -504 1405 -119
179 -201 282 -343 429 -644 667 -1535 1010 -2485 954z m486 -1762 c277 -57
495 -172 684 -361 188 -188 299 -402 362 -694 29 -135 32 -452 5 -593 -94
-504 -415 -883 -878 -1037 -377 -125 -822 -83 -1157 112 -324 187 -535 489
-624 890 -19 83 -22 129 -22 317 0 191 3 234 22 322 129 592 559 988 1153
1063 114 14 339 5 455 -19z"/>
<path d="M43715 27559 c-682 -52 -1304 -293 -1787 -691 -131 -109 -342 -325
-438 -448 -237 -306 -426 -680 -528 -1045 -175 -622 -170 -1324 15 -1934 168
-557 512 -1071 956 -1430 614 -495 1462 -745 2384 -701 739 36 1315 234 1833
630 124 96 384 358 484 488 43 57 77 104 75 106 -2 1 -312 179 -689 396 -377
216 -697 399 -712 408 -26 15 -27 15 -99 -52 -202 -187 -484 -314 -814 -367
-103 -17 -431 -17 -555 0 -368 50 -628 164 -832 367 -110 110 -215 269 -267
407 l-11 27 2100 0 c1990 0 2099 1 2104 18 9 28 34 180 48 292 18 141 18 669
0 810 -54 425 -152 759 -322 1100 -363 730 -989 1263 -1752 1494 -374 113
-785 156 -1193 125z m520 -1599 c471 -81 809 -367 961 -814 13 -38 24 -73 24
-78 0 -4 -567 -8 -1261 -8 l-1261 0 7 33 c10 45 58 164 99 245 178 350 516
576 946 631 129 17 360 12 485 -9z"/>
<path d="M61255 27559 c-652 -49 -1243 -270 -1735 -649 -126 -97 -406 -379
-504 -508 -457 -602 -679 -1354 -636 -2150 38 -688 248 -1274 640 -1782 94
-122 358 -386 480 -480 328 -253 712 -443 1124 -555 615 -167 1393 -173 2000
-15 527 137 970 391 1337 767 101 103 290 327 289 343 -1 4 -1398 810 -1421
818 -5 2 -41 -26 -81 -63 -280 -259 -714 -402 -1163 -381 -463 21 -781 137
-1025 372 -105 101 -173 197 -240 336 l-49 103 2102 5 2102 5 22 130 c36 214
46 392 40 673 -6 274 -19 396 -67 632 -94 460 -289 896 -562 1257 -611 805
-1579 1223 -2653 1142z m595 -1612 c368 -87 630 -283 798 -597 42 -77 96 -208
107 -260 l7 -30 -1261 0 c-761 0 -1261 4 -1261 9 0 5 14 49 31 98 144 409 455
683 879 777 132 29 201 35 400 31 165 -3 211 -7 300 -28z"/>
<path d="M68675 27508 c-246 -27 -495 -101 -710 -208 -184 -92 -304 -179 -445
-320 -156 -155 -271 -329 -346 -525 l-23 -60 -1 503 0 502 -895 0 -895 0 0
-2965 0 -2965 895 0 894 0 4 1453 c3 1432 3 1453 24 1547 60 272 162 468 333
641 196 198 479 332 820 390 86 15 407 18 523 6 l77 -9 0 1011 0 1011 -87 -1
c-49 -1 -124 -6 -168 -11z"/>
<path d="M18196 27293 c19 -60 445 -1393 948 -2963 l914 -2855 834 -3 835 -2
469 1565 c258 861 471 1565 474 1565 4 0 819 -2710 926 -3078 l16 -52 835 2
835 3 947 2960 947 2960 -950 3 c-566 1 -952 -2 -955 -7 -4 -5 -195 -712 -425
-1570 -231 -859 -423 -1558 -426 -1554 -4 5 -211 711 -461 1570 l-454 1563
-835 0 -835 0 -454 -1562 c-250 -860 -457 -1568 -460 -1575 -3 -6 -190 676
-416 1515 -225 840 -415 1548 -423 1575 l-14 47 -953 0 -953 0 34 -107z"/>
<path d="M34024 20613 c40 -855 408 -1641 1025 -2191 468 -416 1022 -670 1676
-769 186 -28 718 -25 905 4 395 62 760 184 1081 362 513 284 938 711 1218
1226 229 419 350 865 377 1383 l7 132 -895 0 -895 0 -6 -104 c-37 -593 -382
-1055 -917 -1224 -142 -45 -262 -62 -435 -62 -302 0 -543 70 -778 226 -338
225 -551 617 -574 1057 l-6 107 -895 0 -895 0 7 -147z"/>
<path d="M47498 19661 c-194 -6 -198 -6 -222 -31 -24 -24 -317 -694 -1253
-2869 -326 -757 -403 -928 -426 -945 -28 -20 -42 -21 -490 -26 -349 -4 -467
-8 -484 -18 -52 -30 -53 -35 -53 -530 0 -451 0 -460 21 -486 46 -58 8 -56 871
-56 751 0 795 1 828 18 19 11 42 34 51 53 18 33 610 1403 653 1507 l21 52 609
-2 610 -3 465 -812 466 -813 613 0 c336 0 612 4 612 8 0 5 -234 412 -520 905
-286 494 -520 901 -520 906 0 4 12 13 28 20 15 7 79 47 142 89 137 90 333 280
427 412 223 313 312 607 300 985 -6 180 -22 290 -63 432 -80 276 -216 499
-438 718 -269 265 -533 402 -901 467 -110 19 -162 21 -635 23 -283 1 -604 -1
-712 -4z m1206 -1095 c169 -53 311 -202 373 -390 23 -71 27 -98 27 -211 1
-109 -3 -142 -22 -205 -64 -207 -227 -371 -413 -415 -53 -12 -162 -15 -641
-15 -318 0 -578 2 -578 4 0 4 202 471 395 913 66 150 126 282 135 293 33 43
77 49 372 50 265 0 281 -1 352 -24z"/>
<path d="M66220 17120 l0 -2430 505 0 505 0 0 2430 0 2430 -505 0 -505 0 0
-2430z"/>
<path d="M64032 19494 c-206 -55 -379 -232 -427 -436 -19 -81 -19 -216 0 -297
48 -201 228 -383 431 -435 79 -20 232 -21 309 -1 107 28 184 73 271 160 126
125 178 252 177 430 -1 175 -51 293 -178 421 -85 85 -162 132 -265 159 -70 19
-248 18 -318 -1z"/>
<path d="M56398 18806 l-498 -149 0 -319 0 -318 -270 0 -270 0 0 -480 0 -480
269 0 270 0 4 -737 c4 -788 4 -776 57 -970 63 -231 201 -428 368 -526 170
-100 381 -149 697 -163 136 -6 485 9 543 23 l22 5 0 454 0 454 -164 0 c-328 0
-446 39 -503 165 -17 37 -18 88 -21 668 l-3 627 346 0 345 0 0 480 0 480 -345
0 -345 0 -2 468 -3 468 -497 -150z"/>
<path d="M52675 18113 c-333 -22 -652 -130 -902 -306 -115 -81 -321 -287 -405
-407 -234 -330 -344 -756 -309 -1196 26 -335 111 -594 276 -839 295 -439 715
-687 1280 -755 117 -14 444 -14 565 0 297 35 557 129 783 282 97 66 307 267
364 349 l33 47 -398 228 c-218 125 -401 229 -405 231 -4 3 -34 -19 -66 -49
-107 -98 -250 -164 -411 -189 -108 -17 -353 -6 -457 20 -149 37 -266 101 -356
196 -48 49 -119 158 -132 203 l-6 22 1174 0 c1062 0 1175 2 1181 16 3 9 13 70
22 137 22 164 15 454 -15 619 -43 241 -152 505 -289 698 -135 190 -365 395
-569 506 -262 143 -607 210 -958 187z m390 -923 c218 -69 347 -194 430 -414
l25 -66 -705 0 c-498 0 -705 3 -705 11 0 6 12 41 27 77 88 222 250 356 493
408 102 21 345 12 435 -16z"/>
<path d="M60125 18114 c-395 -40 -684 -181 -966 -470 -254 -262 -410 -568
-475 -934 -24 -132 -27 -560 -6 -680 62 -344 183 -614 388 -860 262 -316 595
-510 964 -560 106 -14 355 -14 461 0 270 37 511 148 682 314 l67 66 0 -150 0
-150 505 0 505 0 0 1665 0 1665 -505 0 -505 0 0 -146 0 -146 -61 56 c-179 166
-388 267 -639 310 -94 16 -339 28 -415 20z m570 -983 c266 -79 450 -273 516
-546 18 -71 22 -120 22 -230 0 -153 -19 -261 -67 -368 -85 -194 -271 -351
-483 -409 -64 -17 -106 -21 -233 -21 -182 0 -262 17 -390 84 -140 72 -275 220
-330 359 -98 249 -83 571 37 789 44 80 155 197 236 250 71 46 173 87 267 107
97 20 334 12 425 -15z"/>
<path d="M63690 16355 l0 -1665 505 0 505 0 0 1665 0 1665 -505 0 -505 0 0
-1665z"/>
</g>
</svg>
